<svg xmlns="http://www.w3.org/2000/svg" viewBox="0 0 512 512" role="img" aria-label="Lacti">
  <rect width="512" height="512" rx="92" fill="#f5fbfa"/>
  <path d="M131 317c0-83 73-131 125-215 52 84 125 132 125 215 0 76-56 128-125 128s-125-52-125-128Z" fill="#47b99d"/>
  <path d="M179 323c0-53 45-92 77-147 32 55 77 94 77 147 0 48-34 82-77 82s-77-34-77-82Z" fill="#ffffff" opacity=".92"/>
  <path d="M190 286c21-12 47-18 78-18 22 0 41 4 58 11" fill="none" stroke="#f47673" stroke-width="24" stroke-linecap="round"/>
  <circle cx="195" cy="190" r="26" fill="#e9b949"/>
  <circle cx="335" cy="170" r="18" fill="#4778de"/>
</svg>
